<svg width="27" height="27" viewBox="0 0 27 27" fill="none" xmlns="http://www.w3.org/2000/svg">
<path d="M7.10393 18.1868L7.1036 18.1865C5.40715 16.49 4.4541 14.1892 4.4541 11.79C4.4541 9.39089 5.40715 7.09002 7.1036 5.39357C8.80004 3.69713 11.1009 2.74408 13.5 2.74408C15.8992 2.74408 18.2 3.69713 19.8965 5.39357C21.5855 7.08257 22.5343 9.37332 22.5343 11.7619C22.5343 14.1505 21.5855 16.4412 19.8965 18.1302L19.8958 18.1309L13.9221 24.1271L13.9213 24.1279C13.8632 24.1865 13.7941 24.233 13.7179 24.2647C13.6417 24.2965 13.5601 24.3128 13.4775 24.3128C13.395 24.3128 13.3133 24.2965 13.2372 24.2647C13.161 24.233 13.0919 24.1865 13.0338 24.1279L13.0327 24.1268L7.10393 18.1868ZM13.1457 22.3916L13.5 22.7474L13.8544 22.3916L18.995 17.2284C18.9951 17.2283 18.9952 17.2283 18.9952 17.2282C20.0807 16.1416 20.8197 14.7577 21.1188 13.2512C21.4179 11.7447 21.2637 10.1832 20.6756 8.76434C20.0875 7.34543 19.0919 6.13273 17.8147 5.27954C16.5375 4.42635 15.036 3.97098 13.5 3.97098C11.9641 3.97098 10.4626 4.42635 9.18539 5.27954C7.90819 6.13273 6.9126 7.34543 6.32449 8.76434C5.73638 10.1833 5.58214 11.7447 5.88127 13.2512C6.18039 14.7577 6.91938 16.1416 8.00486 17.2282C8.00493 17.2283 8.005 17.2283 8.00508 17.2284L13.1457 22.3916ZM16.63 8.74204L16.6299 8.7421L16.6361 8.74822C17.0422 9.14939 17.3637 9.62791 17.5817 10.1555C17.7996 10.6829 17.9095 11.2486 17.9051 11.8192C17.896 12.6754 17.6343 13.51 17.1529 14.2182C16.6713 14.9265 15.9912 15.4769 15.198 15.8002C14.4048 16.1235 13.5338 16.2054 12.6943 16.0355C11.8549 15.8657 11.0843 15.4518 10.4791 14.8458C9.66438 14.0285 9.20686 12.9215 9.20686 11.7675C9.20686 10.6141 9.66394 9.50761 10.478 8.69045C10.8842 8.28865 11.3657 7.97105 11.895 7.75591C12.4248 7.54055 12.992 7.4321 13.5639 7.43679C14.1358 7.44147 14.7011 7.55921 15.2273 7.78322C15.7535 8.00723 16.2302 8.33309 16.63 8.74204ZM15.7575 13.9521L16.5956 13.1013H16.3264C16.53 12.694 16.644 12.2432 16.6549 11.7793L16.655 11.7793L16.655 11.7686C16.6566 11.0452 16.4068 10.3437 15.9484 9.78404C15.49 9.22439 14.8514 8.84136 14.1419 8.70042C13.4323 8.55948 12.6958 8.6694 12.0583 9.01137C11.4209 9.35334 10.9219 9.90613 10.6469 10.5752C10.3719 11.2443 10.3378 11.9882 10.5505 12.6796C10.7632 13.3711 11.2095 13.9672 11.8131 14.366C12.4167 14.7648 13.14 14.9416 13.8595 14.8661C14.579 14.7906 15.2499 14.4675 15.7575 13.9521Z" fill="white" stroke="white"/>
</svg>
