<svg width="25" height="13" viewBox="0 0 25 13" fill="none" xmlns="http://www.w3.org/2000/svg">
<path fill-rule="evenodd" clip-rule="evenodd" d="M20.2332 7.75951C18.1752 9.81746 15.384 10.9736 12.4737 10.9736C9.56328 10.9736 6.7721 9.81746 4.71415 7.7595C2.6562 5.70155 1.50005 2.91037 1.50005 -6.81819e-06L5.25889e-05 -6.94933e-06C5.22997e-05 3.3082 1.31423 6.48091 3.65349 8.82017C5.99274 11.1594 9.16545 12.4736 12.4737 12.4736C15.7819 12.4736 18.9546 11.1594 21.2938 8.82017C23.6331 6.48091 24.9473 3.3082 24.9473 -2.86102e-06L23.4473 -2.99216e-06C23.4473 2.91038 22.2911 5.70156 20.2332 7.75951Z" fill="white"/>
</svg>
